<svg xmlns="http://www.w3.org/2000/svg" viewBox="0 0 96 96" role="img" aria-label="MoonTurtle mark">
  <rect width="96" height="96" rx="18" fill="#f5ecdb"/>
  <g transform="translate(8 19)" fill="none">
    <path d="M18.5 30.4C18.5 18.7 29.1 9.6 44.4 9.6c14.4 0 24.3 8.5 24.3 19.5 0 11.6-10.4 19.6-24.8 19.6-15 0-25.4-7.5-25.4-18.3Z" fill="#b04a26"/>
    <path d="M65.8 28.5c2.8-5.7 7.7-6.5 10.2-2.6 2.5 3.9 0 9.6-5.3 11-2.5.7-4.8-.5-6.2-2.8" fill="#b04a26"/>
    <path d="M19.8 31.7c-5.7 1.8-10.6 5.3-13 10.5" stroke="#b04a26" stroke-width="4.2" stroke-linecap="round"/>
    <ellipse cx="26.6" cy="47.7" rx="6.9" ry="3.8" fill="#b04a26" transform="rotate(-24 26.6 47.7)"/>
    <ellipse cx="54.2" cy="47.4" rx="6.7" ry="3.7" fill="#b04a26" transform="rotate(24 54.2 47.4)"/>
    <ellipse cx="27.2" cy="10.3" rx="6.9" ry="3.8" fill="#b04a26" transform="rotate(24 27.2 10.3)"/>
    <ellipse cx="55.1" cy="10.6" rx="6.7" ry="3.7" fill="#b04a26" transform="rotate(-24 55.1 10.6)"/>
    <circle cx="73.6" cy="27.5" r="1.25" fill="#fdf8ec" opacity=".9"/>
    <path d="M45.4 15.4c-6.3 2.2-10.7 7.6-10.7 13.8 0 6.3 4.3 11.5 10.6 13.4-4.7.7-14.2-2.5-14.2-13.4 0-10.6 9.4-14.8 14.3-13.8Z" fill="#fdf8ec" opacity=".76"/>
    <path d="M42.5 14.6c11.4 2.5 19.1 8.1 21 15.7M23.9 30.3c3.1-9.3 10.5-14.6 20.5-16.2M25 34.4c6.8 7.7 17.6 10.9 31.1 7.1" stroke="#fdf8ec" stroke-width="1.05" stroke-linecap="round" opacity=".56"/>
    <path d="M40.5 14.9c-2.9 6.8-2.8 21.4.3 29.4M51.7 17.5c-3.6 6.1-4.2 18.1-.9 25.3" stroke="#fdf8ec" stroke-width=".9" stroke-linecap="round" opacity=".48"/>
    <g fill="#fdf8ec" opacity=".7">
      <circle cx="36.7" cy="18.8" r="1"/>
      <circle cx="43.5" cy="18" r="1"/>
      <circle cx="50.5" cy="20.2" r="1"/>
      <circle cx="31.8" cy="24.7" r="1"/>
      <circle cx="40" cy="25.8" r="1"/>
      <circle cx="48.1" cy="25.9" r="1"/>
      <circle cx="56" cy="28" r="1"/>
      <circle cx="32.8" cy="34.5" r="1"/>
      <circle cx="40.8" cy="32.9" r="1"/>
      <circle cx="49.5" cy="33.8" r="1"/>
      <circle cx="37.7" cy="40.1" r="1"/>
      <circle cx="44.7" cy="40.9" r="1"/>
      <circle cx="52.8" cy="38.9" r="1"/>
    </g>
  </g>
</svg>
